<?xml version="1.0" encoding="UTF-8" standalone="no"?>
<!-- Created with Inkscape (http://www.inkscape.org/) -->

<svg
   xmlns:dc="http://purl.org/dc/elements/1.1/"
   xmlns:cc="http://creativecommons.org/ns#"
   xmlns:rdf="http://www.w3.org/1999/02/22-rdf-syntax-ns#"
   xmlns:svg="http://www.w3.org/2000/svg"
   xmlns="http://www.w3.org/2000/svg"
   xmlns:sodipodi="http://sodipodi.sourceforge.net/DTD/sodipodi-0.dtd"
   xmlns:inkscape="http://www.inkscape.org/namespaces/inkscape"
   width="201mm"
   height="266mm"
   viewBox="0 0 201 266"
   version="1.1"
   id="svg8"
   inkscape:version="0.91 r13725"
   sodipodi:docname="srv.svg">
  <defs
     id="defs2" />
  <sodipodi:namedview
     id="base"
     pagecolor="#ffffff"
     bordercolor="#666666"
     borderopacity="1.0"
     inkscape:pageopacity="0.0"
     inkscape:pageshadow="2"
     inkscape:zoom="0.35"
     inkscape:cx="395.66378"
     inkscape:cy="127.61054"
     inkscape:document-units="mm"
     inkscape:current-layer="layer1"
     showgrid="false"
     inkscape:window-width="1436"
     inkscape:window-height="855"
     inkscape:window-x="4"
     inkscape:window-y="1"
     inkscape:window-maximized="1"
     showguides="true"
     inkscape:guide-bbox="true">
    <sodipodi:guide
       position="2.0158731,3.2253969"
       orientation="1,0"
       id="guide4739" />
    <sodipodi:guide
       position="201.18413,33.463492"
       orientation="1,0"
       id="guide4741" />
  </sodipodi:namedview>
  <metadata
     id="metadata5">
    <rdf:RDF>
      <cc:Work
         rdf:about="">
        <dc:format>image/svg+xml</dc:format>
        <dc:type
           rdf:resource="http://purl.org/dc/dcmitype/StillImage" />
        <dc:title></dc:title>
      </cc:Work>
    </rdf:RDF>
  </metadata>
  <g
     inkscape:label="Ebene 1"
     inkscape:groupmode="layer"
     id="layer1"
     transform="translate(0,-31.000001)">
    <path
       class="srv-logo"
       style="fill:#ffffff;fill-opacity:1;stroke-width:0.26400286"
       d="m 9.2575032,240.57085 c -3.3943894,-0.63329 -6.7320735,-1.49641 -6.7320735,-1.74091 0,-0.0633 0.4158008,-1.38419 0.9240084,-2.93537 0.5082076,-1.55118 0.9240083,-2.97895 0.9240083,-3.17281 0,-0.63834 0.678713,-0.63156 2.6960232,0.0269 2.851031,0.93067 6.5375074,1.32361 9.0887154,0.96877 2.419348,-0.3365 4.942747,-1.463 5.052673,-2.25564 0.08861,-0.6389 -1.502576,-3.10315 -3.048617,-4.72137 -1.371442,-1.43546 -4.217846,-3.58131 -7.056721,-5.31993 -2.5844512,-1.5828 -5.6415416,-3.75942 -6.2861216,-4.47565 -0.2629344,-0.29217 -0.7906591,-1.18462 -1.172724,-1.98322 -0.9685579,-2.02452 -0.9585973,-5.3242 0.027914,-9.2401 0.384078,-1.52462 0.6984468,-2.98491 0.698604,-3.24508 3.667e-4,-0.607 2.5457012,-1.77032 5.5707612,-2.54607 2.7078014,-0.69438 7.7742664,-0.9729 10.5336894,-0.57906 2.041953,0.29143 5.23605,0.95731 5.403225,1.1264 0.05208,0.0527 -0.201652,1.16496 -0.563818,2.47177 -0.362166,1.30682 -0.784717,2.83211 -0.938998,3.38954 -0.234265,0.84639 -0.372194,0.99007 -0.836451,0.87139 -0.305763,-0.0782 -1.625142,-0.4473 -2.931956,-0.82029 -4.41036,-1.25882 -8.191654,-0.80874 -9.510426,1.13202 -0.510363,0.75106 -0.65368,1.29859 -0.65368,2.49731 0,2.07148 0.09815,2.1563 8.905598,7.69528 4.919272,3.09371 5.949374,4.02505 7.110327,6.42866 0.957302,1.98198 0.984916,2.12232 0.998394,5.07438 0.01205,2.63778 -0.07274,3.25474 -0.646144,4.70333 -1.275368,3.2218 -4.098266,5.5078 -8.041556,6.51206 -1.667746,0.42475 -7.521853,0.50942 -9.5146328,0.13763 z M 180.50285,240.27184 c -0.41835,-1.11085 -2.52317,-6.85899 -4.53103,-12.37402 -1.11904,-3.07368 -3.95233,-10.7661 -4.66743,-12.67214 -0.3541,-0.94381 -0.80938,-2.19123 -1.01173,-2.77203 -0.20236,-0.58081 -1.27277,-3.49143 -2.3787,-6.46807 -1.10593,-2.97663 -2.07561,-5.68245 -2.15485,-6.01293 l -0.14406,-0.60087 4.14265,0.0729 4.14265,0.0729 0.50906,1.45201 c 0.54356,1.55041 2.05392,5.89175 3.03098,8.7121 0.32696,0.94381 1.20837,3.43864 1.95868,5.54406 0.75032,2.10542 1.52372,4.30325 1.71868,4.88405 0.64679,1.92683 1.96233,5.47673 2.0692,5.58359 0.18994,0.18994 0.64848,-0.55013 0.92415,-1.49155 0.14882,-0.5082 0.82611,-2.46842 1.50508,-4.35604 0.67898,-1.88762 1.44878,-4.08545 1.71066,-4.88406 0.26188,-0.7986 1.33172,-3.88744 2.37742,-6.86407 1.0457,-2.97663 2.05971,-5.91055 2.25335,-6.51981 0.73934,-2.32629 0.43171,-2.19229 5.03303,-2.19229 l 4.10055,0 -0.17978,0.59401 c -0.19804,0.65432 -1.63033,4.50902 -1.98643,5.34606 -0.12355,0.2904 -0.65194,1.65661 -1.1742,3.03603 -0.52225,1.37942 -1.17502,3.10204 -1.45058,3.82805 -0.27556,0.726 -0.80959,2.15161 -1.18673,3.16803 -0.37714,1.01641 -0.79282,2.08562 -0.92371,2.37602 -0.1309,0.2904 -0.61472,1.53782 -1.07517,2.77204 -0.46045,1.23421 -1.22971,3.25383 -1.70948,4.48804 -0.47977,1.23421 -1.16801,3.01623 -1.52943,3.96004 -1.20649,3.15068 -2.01426,5.26442 -2.69876,7.06208 -0.3732,0.98011 -0.92966,2.40573 -1.23659,3.16803 l -0.55805,1.38602 -1.50244,0 c -0.82634,0 -1.87118,0.0737 -2.32186,0.16389 -0.69582,0.13916 -0.85497,0.0694 -1.05513,-0.46201 z m -91.252485,0.0212 c -1.742417,-0.0987 -3.317276,-0.19562 -3.499688,-0.21531 -0.263638,-0.0284 -0.317781,-4.15987 -0.264004,-20.14703 l 0.06765,-20.11124 0.792006,-0.22864 c 0.43561,-0.12574 4.059045,-0.25308 8.052093,-0.28298 6.868778,-0.0514 7.360708,-0.0224 9.126408,0.53663 6.58896,2.08644 9.97979,6.98268 8.84176,12.7672 -0.55486,2.8203 -2.8399,6.55937 -5.6674,9.27368 -0.91259,0.87607 -0.90458,0.90282 1.28022,4.27552 0.80697,1.24572 2.13803,3.30446 2.95792,4.57497 0.8199,1.27052 2.48312,3.81051 3.69605,5.64443 1.21292,1.83392 2.20532,3.40804 2.20532,3.49803 0,0.09 -0.64915,0.16364 -1.44256,0.16364 -0.79339,0 -2.63643,0.13576 -4.09561,0.30168 -3.19633,0.36347 -3.02179,0.46975 -5.20873,-3.17157 -0.83975,-1.39819 -1.76495,-2.91725 -2.05602,-3.37568 -0.29108,-0.45844 -0.94503,-1.52018 -1.45323,-2.35944 -1.99516,-3.29482 -5.40029,-6.83825 -7.747718,-8.0624 -1.800331,-0.93884 -1.741428,-1.21041 -1.818808,8.38573 -0.04438,5.50014 -0.165446,8.64808 -0.333624,8.67307 -0.145203,0.0215 -1.68962,-0.0415 -3.432035,-0.14029 z m 11.352155,-23.7264 c 2.28842,-0.54476 3.09086,-1.27855 3.70409,-3.38718 0.82962,-2.85267 0.1855,-4.6364 -2.09516,-5.80201 -1.64021,-0.83829 -8.446547,-2.2368 -8.862385,-1.82096 -0.265351,0.26535 -0.408242,11.8196 -0.149371,12.07848 0.148788,0.14878 5.586584,-0.63596 7.402826,-1.06833 z m -5.774272,-35.42283 c -4.837903,-0.51038 -11.344202,-2.56503 -14.562022,-4.59859 -2.524162,-1.59519 -4.565457,-4.42998 -5.425937,-7.53515 -1.590576,-5.73976 0.663671,-10.41344 6.264064,-12.98717 1.078289,-0.49553 1.722301,-0.58649 4.053964,-0.57252 2.424841,0.0145 3.003491,0.11154 4.620057,0.77459 2.086734,0.85589 4.561243,3.06847 5.23491,4.68077 0.767684,1.83731 1.018324,3.72732 0.678574,5.11691 -0.720064,2.94512 -1.586109,3.82135 -7.684645,7.7751 -0.538531,0.34913 -0.894935,0.71284 -0.792006,0.80824 0.102921,0.0954 2.503762,0.43562 5.335192,0.75604 l 5.148071,0.5826 2.77206,-0.53323 c 1.52461,-0.29327 3.54423,-0.88422 4.48804,-1.31322 4.29637,-1.95288 6.58409,-5.75443 5.96148,-9.90632 -0.54033,-3.60313 -5.02264,-7.05494 -16.917634,-13.02817 -10.520069,-5.2828 -12.877259,-6.74 -16.324606,-10.09177 -4.379663,-4.25822 -6.5264,-8.95897 -6.502431,-14.23848 0.03031,-6.67963 2.920447,-13.08861 8.742787,-19.38756 1.212267,-1.31149 2.23764,-2.46818 2.278605,-2.57041 0.04093,-0.10224 -0.485772,-0.94665 -1.170524,-1.87647 -1.916027,-2.60176 -4.053851,-5.956874 -4.872551,-7.646996 -2.888656,-5.96333 -2.314511,-13.913786 1.474588,-20.419324 1.280202,-2.197986 4.728732,-5.92885 6.581404,-7.120232 2.397908,-1.541988 2.63762,-1.663268 4.677934,-2.366816 7.17594,-2.474386 15.632658,-2.88388 22.674868,-1.097988 7.83133,1.986006 11.80813,4.750306 13.86308,9.636288 0.86393,2.054146 1.15585,5.40782 0.66644,7.656146 -1.67129,7.677696 -12.05123,10.209322 -18.33021,4.470662 -1.77362,-1.621012 -2.53923,-3.451384 -2.53923,-6.070654 0,-3.529324 1.286,-5.227636 6.57902,-8.68833 l 2.2088,-1.444172 -0.81741,-0.33354 c -1.58784,-0.647908 -4.64116,-0.931788 -8.62906,-0.802288 -4.23047,0.13738 -6.285566,0.606194 -9.243536,2.108676 -3.675734,1.867072 -5.758337,5.67714 -5.287218,9.672808 0.16969,1.439232 0.240955,1.546942 2.422955,3.662298 3.578587,3.469284 5.935737,4.891932 18.046509,10.891946 9.02341,4.470452 13.88765,8.255756 16.61931,12.933006 4.25085,7.2785 3.2214,16.59383 -2.77401,25.10135 -1.49276,2.11823 -3.93369,4.94551 -5.06721,5.86924 -0.3267,0.26624 -0.594,0.60491 -0.594,0.75261 0,0.14769 0.60091,0.94098 1.33535,1.76285 4.59941,5.14695 6.57676,10.87497 6.24928,18.10295 -0.18981,4.18941 -1.41491,8.11985 -3.46347,11.11168 -0.88826,1.29728 -3.36318,3.80774 -4.85485,4.92459 -5.71541,4.27922 -14.58095,6.37939 -23.124782,5.47805 z m 21.408812,-46.5566 c 2.16035,-2.30902 3.42145,-4.2785 3.79219,-5.92235 0.26817,-1.18903 -0.12765,-3.04693 -0.84285,-3.95616 -0.81541,-1.03662 -5.59706,-4.21111 -9.60778,-6.37851 -3.31257,-1.79011 -14.185176,-7.12166 -14.523176,-7.12166 -0.0509,0 -1.615416,-0.7251 -3.476784,-1.61132 -1.861367,-0.88622 -3.650189,-1.71435 -3.975162,-1.84029 -0.528061,-0.20464 -0.839706,0.0758 -2.932472,2.63839 -2.721055,3.33199 -3.576095,4.91553 -3.569936,6.61151 0.0067,1.94906 0.575657,2.6563 3.983365,4.95478 5.166123,3.48452 10.359779,6.22557 21.284335,11.23325 0.70303,0.32226 2.66325,1.2617 4.35606,2.08765 1.6928,0.82595 3.1562,1.50906 3.25201,1.51802 0.0958,0.009 1.1129,-0.98703 2.2602,-2.21331 z M 1.1141228,137.0148 c -0.32265315,-4.14484 -0.19416815,-8.51701 0.3294631,-11.21075 0.5410379,-2.78325 0.7610317,-3.43148 2.6687372,-7.86345 1.2565093,-2.91912 4.9418071,-11.60471 6.3849419,-15.04816 0.425971,-1.01642 0.941281,-2.20443 1.145133,-2.64003 0.203851,-0.435614 0.739815,-1.683032 1.19102,-2.77206 0.451213,-1.089018 0.976146,-2.336436 1.166513,-2.77204 0.190374,-0.435614 1.147976,-2.69286 2.128013,-5.016096 0.98003,-2.323246 2.839916,-6.718918 4.133073,-9.768168 1.293156,-3.04926 2.652161,-6.256914 3.020014,-7.128132 0.367847,-0.871214 0.836983,-1.940442 1.042526,-2.376046 1.156559,-2.451176 3.700927,-8.72496 4.229206,-10.428182 0.65808,-2.121686 1.164963,-7.006642 1.164963,-11.22693 l 0,-2.43812 15.246161,-0.2015 c 8.385387,-0.11083 21.305033,-0.12546 28.710308,-0.0326 7.405283,0.0929 14.976955,0.0918 16.825952,-0.002 l 3.361796,-0.17158 0.07027,-7.021548 0.07027,-7.021548 6.402107,-0.07072 6.40207,-0.07072 0,6.985193 c 0,5.298237 0.0797,7.036769 0.33,7.198763 0.1815,0.11747 9.59651,0.17153 20.92223,0.12011 11.32572,-0.0514 25.73037,-0.007 32.01034,0.10004 l 11.41812,0.19351 0.002,3.067994 c 0.005,7.336482 0.74483,11.031706 3.30819,16.532246 0.20301,0.435604 0.73619,1.683032 1.18487,2.77205 0.44868,1.089018 0.9206,2.217636 1.04874,2.508036 0.12814,0.290414 0.60006,1.419032 1.04874,2.50805 0.44868,1.089018 0.98256,2.336446 1.18641,2.77205 0.20386,0.435604 0.71917,1.623632 1.14514,2.64005 0.42597,1.016414 1.75607,4.164678 2.95578,6.996128 1.19971,2.83145 2.52908,5.979714 2.95418,6.996118 0.42509,1.016418 0.87639,2.085636 1.00289,2.37605 0.1265,0.29041 0.52791,1.240828 0.89202,2.112032 0.3641,0.871218 1.09954,2.59385 1.6343,3.82807 0.53476,1.23421 1.3827,3.25383 1.8843,4.48804 0.50162,1.23422 1.07226,2.60043 1.2681,3.03604 0.19583,0.4356 0.72622,1.68301 1.17863,2.77202 0.45242,1.08902 0.92383,2.16573 1.04757,2.3927 0.12375,0.22697 0.60136,1.35259 1.06136,2.50138 0.46,1.14879 1.00004,2.44811 1.2001,2.88737 2.01256,4.41888 2.77273,8.29331 2.77273,14.13199 0,2.14107 -0.0742,4.2641 -0.165,4.71785 l -0.165,0.82501 -28.63803,0 -28.63801,0 0.12969,-6.53407 c 0.111,-5.59299 0.20796,-6.79237 0.67316,-8.32749 0.60536,-1.99762 1.98227,-5.51919 3.22129,-8.23868 0.31729,-0.69643 3.80601,-8.96846 5.95683,-14.12416 0.9389,-2.250634 1.87668,-4.44847 2.08395,-4.884074 0.20728,-0.43561 1.27519,-2.93046 2.37315,-5.544106 1.09796,-2.61365 2.1039,-4.989686 2.23542,-5.28009 0.13153,-0.29041 0.53661,-1.240828 0.90019,-2.112036 0.36358,-0.871214 1.26911,-3.00966 2.01228,-4.752082 0.74316,-1.742442 1.59616,-3.762078 1.89555,-4.488092 0.29938,-0.726014 0.64926,-1.525782 0.77752,-1.777272 0.12824,-0.251504 0.45672,-1.023708 0.72993,-1.716042 1.32288,-3.352204 2.43306,-6.049944 2.6399,-6.414948 0.623,-1.099424 2.39919,-5.86609 2.26611,-6.08142 -0.0939,-0.151794 -27.04659,-0.246604 -70.10599,-0.246604 -57.260099,0 -69.977464,0.0625 -70.085587,0.344224 -0.07267,0.18932 0.183542,1.050638 0.569311,1.914032 0.38577,0.863398 1.111262,2.57963 1.612203,3.813858 0.500933,1.234218 1.07103,2.60044 1.266867,3.03605 0.195837,0.435614 0.704172,1.623632 1.129641,2.64005 0.42547,1.016418 1.274657,3.03605 1.887088,4.488072 1.490146,3.533014 2.024786,4.803156 4.1117,9.768178 0.976513,2.323246 1.929924,4.580482 2.118689,5.016096 0.410562,0.947438 1.250485,2.94489 2.886336,6.864118 0.666664,1.597232 1.379667,3.260464 1.584446,3.696068 0.204788,0.4356 0.72086,1.62362 1.146831,2.64003 1.721874,4.10857 5.192601,12.27243 6.060767,14.25616 3.253778,7.43481 3.512162,8.55979 3.683595,16.03817 l 0.137675,6.00606 -28.636023,0 -28.6362763,0 z M 55.89609,125.87292 c -0.04947,-0.28367 -0.30625,-0.99647 -0.570651,-1.58401 -0.502093,-1.11573 -1.2505,-2.87873 -2.638863,-6.21631 -0.453009,-1.08901 -0.928483,-2.21762 -1.056616,-2.50803 -0.128134,-0.2904 -0.600068,-1.41901 -1.048744,-2.50802 -0.448676,-1.08902 -0.982126,-2.33643 -1.185439,-2.77204 -0.20332,-0.4356 -1.163384,-2.69282 -2.133491,-5.01605 -0.9701,-2.32323 -2.03893,-4.87745 -2.375173,-5.676064 -2.169308,-5.152326 -2.941056,-6.969882 -3.755318,-8.844164 -0.504653,-1.161618 -1.327963,-3.12185 -1.829577,-4.356072 -0.501607,-1.234228 -1.07225,-2.600446 -1.268087,-3.03606 -0.195837,-0.435604 -0.725238,-1.683032 -1.176451,-2.77204 -0.451213,-1.089028 -0.98583,-2.336446 -1.188043,-2.77206 -0.20222,-0.435604 -0.665182,-1.504818 -1.028823,-2.376036 -3.695554,-8.853924 -4.806015,-11.35221 -5.04593,-11.35221 -0.315364,0 -0.900735,1.273338 -4.005134,8.71216 -0.363573,0.871218 -0.763217,1.821636 -0.88808,2.112036 -0.12487,0.290414 -0.524506,1.240828 -0.888087,2.112046 -0.363581,0.871204 -1.269097,3.00965 -2.012273,4.752082 -0.743168,1.742432 -1.598897,3.762068 -1.901621,4.488082 -0.302717,0.726014 -0.708617,1.676432 -0.901992,2.112036 -0.193382,0.435604 -0.719416,1.683032 -1.168975,2.77205 -0.449551,1.089018 -0.984153,2.336436 -1.188013,2.77205 -0.203851,0.43561 -0.739808,1.683022 -1.191021,2.77205 -0.451213,1.089018 -0.978212,2.336436 -1.171108,2.77205 -0.192895,0.4356 -0.665077,1.564214 -1.049282,2.508034 -0.384206,0.94381 -0.867022,2.07242 -1.072916,2.50802 -0.205894,0.43561 -0.743527,1.68302 -1.19474,2.77203 -0.451213,1.08902 -0.9765434,2.33643 -1.1674034,2.77204 -0.190861,0.4356 -0.7254704,1.68301 -1.1880138,2.77202 -0.4625514,1.08901 -0.9958288,2.33643 -1.1850658,2.77203 -0.189243,0.43561 -0.6653774,1.56422 -1.0580838,2.50803 -0.3926994,0.94381 -0.8745124,2.07242 -1.0706938,2.50803 -0.7439996,1.65197 -1.9230547,4.51139 -2.0943456,5.07914 l -0.1783403,0.5911 11.0389885,0.073 c 6.071445,0.0401 17.988865,0.0711 26.483153,0.0689 15.175575,-0.004 15.442603,-0.013 15.354253,-0.51979 z m 141.85739,0.38715 c 0.0886,-0.14333 -0.44685,-1.65805 -1.18987,-3.36603 -0.74302,-1.70798 -1.64842,-3.81823 -2.012,-4.68944 -0.36358,-0.87121 -0.76455,-1.82162 -0.89105,-2.11202 -0.1265,-0.2904 -0.57604,-1.35962 -0.99897,-2.37602 -0.98597,-2.36953 -2.88279,-6.8075 -3.51998,-8.23562 -0.27178,-0.60913 -0.49413,-1.17473 -0.49413,-1.25688 0,-0.0822 -0.22841,-0.65298 -0.50757,-1.2685 -0.27915,-0.61552 -0.88222,-2.01015 -1.34014,-3.099164 -0.45792,-1.089018 -0.99462,-2.339436 -1.19268,-2.77869 -0.19805,-0.43926 -0.73646,-1.738592 -1.19645,-2.88739 -0.46,-1.148798 -0.93931,-2.274426 -1.06514,-2.501386 -0.12582,-0.226984 -0.42217,-0.887888 -0.65854,-1.468712 -1.59027,-3.907508 -2.30814,-5.64407 -2.61927,-6.336104 -0.47004,-1.045558 -1.53256,-3.565334 -3.67366,-8.71216 -0.96648,-2.32324 -1.92524,-4.580476 -2.13058,-5.016086 -0.20534,-0.435604 -0.92606,-2.128536 -1.60159,-3.762068 -0.67554,-1.633532 -1.27707,-2.97005 -1.33674,-2.97005 -0.14074,0 -1.22578,2.442076 -2.34601,5.280096 -0.85408,2.163756 -1.61009,3.966198 -2.39751,5.71599 -0.2059,0.457554 -0.37437,0.919758 -0.37437,1.027108 0,0.10735 -0.23134,0.683414 -0.51408,1.280128 -0.28274,0.596714 -1.30693,2.985764 -2.27597,5.30901 -2.11424,5.068796 -3.23264,7.735552 -3.54305,8.44815 -0.29578,0.679014 -1.33223,3.15785 -2.37331,5.6761 -0.45021,1.089018 -0.91981,2.165736 -1.04356,2.392716 -0.12374,0.22697 -0.60136,1.352598 -1.06136,2.501382 -0.45999,1.1488 -0.9984,2.44811 -1.19645,2.88737 -0.19805,0.43926 -0.73476,1.68967 -1.19268,2.77867 -0.45792,1.08902 -1.06098,2.48364 -1.34014,3.09916 -0.27916,0.61553 -0.50756,1.19158 -0.50756,1.28012 0,0.0885 -0.16847,0.53534 -0.37436,0.99288 -0.78693,1.74871 -1.54329,3.55184 -2.39767,5.71597 -0.90993,2.30483 -1.63513,4.02486 -2.54047,6.02549 -0.2841,0.6278 -0.58607,1.48911 -0.67105,1.91402 l -0.15452,0.77258 26.28571,0 c 17.01139,0 26.34253,-0.0919 26.44677,-0.26062 z"
       id="path75"
       inkscape:connector-curvature="0" />
    <text
       xml:space="preserve"
       style="font-style:normal;font-weight:normal;font-size:15.53634834px;line-height:125%;font-family:sans-serif;letter-spacing:0px;word-spacing:0px;fill:#000000;fill-opacity:1;stroke:none;stroke-width:1px;stroke-linecap:butt;stroke-linejoin:miter;stroke-opacity:1"
       x="2.0021827"
       y="274.54703"
       id="text4733"
       sodipodi:linespacing="125%"><tspan
         sodipodi:role="line"
         id="tspan4735"
         x="2.0021827"
         y="274.54703"
         style="fill:#ffffff;fill-opacity:1">Mitglied des St.Gallischen</tspan><tspan
         sodipodi:role="line"
         x="2.0021827"
         y="293.96747"
         style="fill:#ffffff;fill-opacity:1"
         id="tspan4737">Rechtsagentenverbandes</tspan></text>
  </g>
</svg>
